<mxfile host="app.diagrams.net" modified="2021-02-01T12:45:20.410Z" agent="5.0 (Macintosh; Intel Mac OS X 10_15_7) AppleWebKit/537.36 (KHTML, like Gecko) Chrome/88.0.4324.96 Safari/537.36" etag="3xFAS1sTCtU5nw6ueCap" version="14.2.3" type="github">
  <diagram id="TJbiZQzESMzNVzATptO5" name="Page-1">
    <mxGraphModel dx="1181" dy="614" grid="1" gridSize="10" guides="1" tooltips="1" connect="1" arrows="1" fold="1" page="1" pageScale="1" pageWidth="850" pageHeight="1100" math="0" shadow="0">
      <root>
        <mxCell id="0" />
        <mxCell id="1" parent="0" />
        <mxCell id="NvUyBQMlmmWpnLGDb2Qi-13" value="" style="group" vertex="1" connectable="0" parent="1">
          <mxGeometry x="225" y="330" width="330" height="330" as="geometry" />
        </mxCell>
        <mxCell id="NvUyBQMlmmWpnLGDb2Qi-5" value="" style="rounded=0;whiteSpace=wrap;html=1;fillColor=#dae8fc;strokeColor=#6c8ebf;rotation=90;opacity=60;" vertex="1" parent="NvUyBQMlmmWpnLGDb2Qi-13">
          <mxGeometry x="120" y="-62" width="90" height="330" as="geometry" />
        </mxCell>
        <mxCell id="NvUyBQMlmmWpnLGDb2Qi-4" value="" style="rounded=0;whiteSpace=wrap;html=1;fillColor=#dae8fc;strokeColor=#6c8ebf;opacity=60;" vertex="1" parent="NvUyBQMlmmWpnLGDb2Qi-13">
          <mxGeometry x="25" width="120" height="330" as="geometry" />
        </mxCell>
        <mxCell id="NvUyBQMlmmWpnLGDb2Qi-1" value="" style="endArrow=classic;html=1;strokeWidth=7;" edge="1" parent="NvUyBQMlmmWpnLGDb2Qi-13">
          <mxGeometry width="50" height="50" relative="1" as="geometry">
            <mxPoint x="85" y="330" as="sourcePoint" />
            <mxPoint x="85" y="100" as="targetPoint" />
          </mxGeometry>
        </mxCell>
        <mxCell id="NvUyBQMlmmWpnLGDb2Qi-2" value="" style="endArrow=classic;html=1;strokeWidth=7;" edge="1" parent="NvUyBQMlmmWpnLGDb2Qi-13">
          <mxGeometry width="50" height="50" relative="1" as="geometry">
            <mxPoint x="85" y="100" as="sourcePoint" />
            <mxPoint x="315" y="100" as="targetPoint" />
          </mxGeometry>
        </mxCell>
        <mxCell id="NvUyBQMlmmWpnLGDb2Qi-6" value="" style="curved=1;endArrow=classic;html=1;strokeWidth=2;strokeColor=#FF0D3D;dashed=1;" edge="1" parent="NvUyBQMlmmWpnLGDb2Qi-13">
          <mxGeometry width="50" height="50" relative="1" as="geometry">
            <mxPoint x="85" y="150" as="sourcePoint" />
            <mxPoint x="145" y="100" as="targetPoint" />
            <Array as="points">
              <mxPoint x="85" y="130" />
              <mxPoint x="115" y="100" />
            </Array>
          </mxGeometry>
        </mxCell>
        <mxCell id="NvUyBQMlmmWpnLGDb2Qi-7" value="link A" style="text;html=1;strokeColor=none;fillColor=none;align=center;verticalAlign=middle;whiteSpace=wrap;rounded=0;opacity=60;" vertex="1" parent="NvUyBQMlmmWpnLGDb2Qi-13">
          <mxGeometry x="65" y="10" width="40" height="20" as="geometry" />
        </mxCell>
        <mxCell id="NvUyBQMlmmWpnLGDb2Qi-8" value="link B" style="text;html=1;strokeColor=none;fillColor=none;align=center;verticalAlign=middle;whiteSpace=wrap;rounded=0;opacity=60;" vertex="1" parent="NvUyBQMlmmWpnLGDb2Qi-13">
          <mxGeometry x="275" y="60" width="40" height="20" as="geometry" />
        </mxCell>
        <mxCell id="NvUyBQMlmmWpnLGDb2Qi-17" value="" style="shape=image;html=1;verticalAlign=top;verticalLabelPosition=bottom;labelBackgroundColor=#ffffff;imageAspect=0;aspect=fixed;image=https://cdn4.iconfinder.com/data/icons/common-toolbar/36/Cancel-128.png;opacity=60;" vertex="1" parent="NvUyBQMlmmWpnLGDb2Qi-13">
          <mxGeometry x="73" y="149" width="23" height="23" as="geometry" />
        </mxCell>
        <mxCell id="NvUyBQMlmmWpnLGDb2Qi-23" value="" style="shape=image;html=1;verticalAlign=top;verticalLabelPosition=bottom;labelBackgroundColor=#ffffff;imageAspect=0;aspect=fixed;image=https://cdn1.iconfinder.com/data/icons/media-player-long-shadow/50/Close-128.png;opacity=60;" vertex="1" parent="NvUyBQMlmmWpnLGDb2Qi-13">
          <mxGeometry x="145" y="91" width="18" height="18" as="geometry" />
        </mxCell>
      </root>
    </mxGraphModel>
  </diagram>
</mxfile>
